<svg width="17.000000" height="18.000000" viewBox="0 0 17 18" fill="none" xmlns="http://www.w3.org/2000/svg" xmlns:xlink="http://www.w3.org/1999/xlink">
	<desc>
			Created with Pixso.
	</desc>
	<defs/>
	<path id="icon" d="M0.76 12.25L3.3 11.96C3.91 11.88 4.51 12.1 4.94 12.53L6.78 14.37C9.61 12.92 11.93 10.62 13.37 7.78L11.52 5.92C11.09 5.5 10.88 4.89 10.95 4.29L11.24 1.77C11.36 0.76 12.21 0 13.23 0L14.96 0C16.09 0 17.03 0.93 16.96 2.07C16.43 10.61 9.6 17.42 1.07 17.95C-0.06 18.03 -1 17.09 -1 15.96L-1 14.23C-1.01 13.22 -0.25 12.37 0.76 12.25Z" fill="#FFFFFF" fill-opacity="1.000000" fill-rule="evenodd"/>
</svg>
